<mxfile host="app.diagrams.net" modified="2023-09-10T02:43:15.426Z" agent="Mozilla/5.0 (Macintosh; Intel Mac OS X 10_15_7) AppleWebKit/537.36 (KHTML, like Gecko) Chrome/116.0.0.0 Safari/537.36 Edg/116.0.1938.76" etag="wch9BGxu5kUoknFX_5R-" version="21.7.4" type="device" pages="2">
  <diagram name="Page-1" id="ydbewNbgM_T4J-luvXvg">
    <mxGraphModel dx="2365" dy="1033" grid="1" gridSize="10" guides="1" tooltips="1" connect="1" arrows="1" fold="1" page="1" pageScale="1" pageWidth="850" pageHeight="1100" math="0" shadow="0">
      <root>
        <mxCell id="0" />
        <mxCell id="1" parent="0" />
        <mxCell id="rsf9-r4wDUU0yCLMIy4u-2" value="AWS Cloud" style="points=[[0,0],[0.25,0],[0.5,0],[0.75,0],[1,0],[1,0.25],[1,0.5],[1,0.75],[1,1],[0.75,1],[0.5,1],[0.25,1],[0,1],[0,0.75],[0,0.5],[0,0.25]];outlineConnect=0;gradientColor=none;html=1;whiteSpace=wrap;fontSize=12;fontStyle=0;container=1;pointerEvents=0;collapsible=0;recursiveResize=0;shape=mxgraph.aws4.group;grIcon=mxgraph.aws4.group_aws_cloud_alt;strokeColor=#232F3E;fillColor=none;verticalAlign=top;align=left;spacingLeft=30;fontColor=#232F3E;dashed=0;" parent="1" vertex="1">
          <mxGeometry x="80" y="60" width="870" height="680" as="geometry" />
        </mxCell>
        <mxCell id="rsf9-r4wDUU0yCLMIy4u-1" value="" style="sketch=0;points=[[0,0,0],[0.25,0,0],[0.5,0,0],[0.75,0,0],[1,0,0],[0,1,0],[0.25,1,0],[0.5,1,0],[0.75,1,0],[1,1,0],[0,0.25,0],[0,0.5,0],[0,0.75,0],[1,0.25,0],[1,0.5,0],[1,0.75,0]];outlineConnect=0;fontColor=#232F3E;gradientColor=#F54749;gradientDirection=north;fillColor=#C7131F;strokeColor=#ffffff;dashed=0;verticalLabelPosition=bottom;verticalAlign=top;align=center;html=1;fontSize=12;fontStyle=0;aspect=fixed;shape=mxgraph.aws4.resourceIcon;resIcon=mxgraph.aws4.cognito;" parent="rsf9-r4wDUU0yCLMIy4u-2" vertex="1">
          <mxGeometry x="150" y="60" width="78" height="78" as="geometry" />
        </mxCell>
        <mxCell id="rsf9-r4wDUU0yCLMIy4u-6" value="" style="sketch=0;points=[[0,0,0],[0.25,0,0],[0.5,0,0],[0.75,0,0],[1,0,0],[0,1,0],[0.25,1,0],[0.5,1,0],[0.75,1,0],[1,1,0],[0,0.25,0],[0,0.5,0],[0,0.75,0],[1,0.25,0],[1,0.5,0],[1,0.75,0]];outlineConnect=0;fontColor=#232F3E;gradientColor=#945DF2;gradientDirection=north;fillColor=#5A30B5;strokeColor=#ffffff;dashed=0;verticalLabelPosition=bottom;verticalAlign=top;align=center;html=1;fontSize=12;fontStyle=0;aspect=fixed;shape=mxgraph.aws4.resourceIcon;resIcon=mxgraph.aws4.route_53;" parent="rsf9-r4wDUU0yCLMIy4u-2" vertex="1">
          <mxGeometry x="-40" y="221" width="78" height="78" as="geometry" />
        </mxCell>
        <mxCell id="rsf9-r4wDUU0yCLMIy4u-10" value="" style="edgeStyle=orthogonalEdgeStyle;html=1;endArrow=block;elbow=vertical;startArrow=none;endFill=1;strokeColor=#545B64;rounded=0;exitX=1;exitY=0.25;exitDx=0;exitDy=0;exitPerimeter=0;entryX=0.5;entryY=1;entryDx=0;entryDy=0;entryPerimeter=0;" parent="rsf9-r4wDUU0yCLMIy4u-2" source="rsf9-r4wDUU0yCLMIy4u-6" target="rsf9-r4wDUU0yCLMIy4u-1" edge="1">
          <mxGeometry width="100" relative="1" as="geometry">
            <mxPoint x="60" y="250" as="sourcePoint" />
            <mxPoint x="160" y="250" as="targetPoint" />
          </mxGeometry>
        </mxCell>
        <mxCell id="rsf9-r4wDUU0yCLMIy4u-11" value="" style="sketch=0;points=[[0,0,0],[0.25,0,0],[0.5,0,0],[0.75,0,0],[1,0,0],[0,1,0],[0.25,1,0],[0.5,1,0],[0.75,1,0],[1,1,0],[0,0.25,0],[0,0.5,0],[0,0.75,0],[1,0.25,0],[1,0.5,0],[1,0.75,0]];outlineConnect=0;fontColor=#232F3E;gradientColor=#945DF2;gradientDirection=north;fillColor=#5A30B5;strokeColor=#ffffff;dashed=0;verticalLabelPosition=bottom;verticalAlign=top;align=center;html=1;fontSize=12;fontStyle=0;aspect=fixed;shape=mxgraph.aws4.resourceIcon;resIcon=mxgraph.aws4.cloudfront;" parent="rsf9-r4wDUU0yCLMIy4u-2" vertex="1">
          <mxGeometry x="150" y="540" width="78" height="78" as="geometry" />
        </mxCell>
        <mxCell id="rsf9-r4wDUU0yCLMIy4u-12" value="" style="edgeStyle=orthogonalEdgeStyle;html=1;endArrow=block;elbow=vertical;startArrow=none;endFill=1;strokeColor=#545B64;rounded=0;exitX=1;exitY=0.75;exitDx=0;exitDy=0;exitPerimeter=0;entryX=0.5;entryY=0;entryDx=0;entryDy=0;entryPerimeter=0;" parent="rsf9-r4wDUU0yCLMIy4u-2" source="rsf9-r4wDUU0yCLMIy4u-6" target="rsf9-r4wDUU0yCLMIy4u-11" edge="1">
          <mxGeometry width="100" relative="1" as="geometry">
            <mxPoint x="48" y="270" as="sourcePoint" />
            <mxPoint x="199" y="168" as="targetPoint" />
          </mxGeometry>
        </mxCell>
        <mxCell id="rsf9-r4wDUU0yCLMIy4u-13" value="" style="sketch=0;points=[[0,0,0],[0.25,0,0],[0.5,0,0],[0.75,0,0],[1,0,0],[0,1,0],[0.25,1,0],[0.5,1,0],[0.75,1,0],[1,1,0],[0,0.25,0],[0,0.5,0],[0,0.75,0],[1,0.25,0],[1,0.5,0],[1,0.75,0]];outlineConnect=0;fontColor=#232F3E;gradientColor=#60A337;gradientDirection=north;fillColor=#277116;strokeColor=#ffffff;dashed=0;verticalLabelPosition=bottom;verticalAlign=top;align=center;html=1;fontSize=12;fontStyle=0;aspect=fixed;shape=mxgraph.aws4.resourceIcon;resIcon=mxgraph.aws4.s3;" parent="rsf9-r4wDUU0yCLMIy4u-2" vertex="1">
          <mxGeometry x="520" y="540" width="78" height="78" as="geometry" />
        </mxCell>
        <mxCell id="rsf9-r4wDUU0yCLMIy4u-14" value="" style="edgeStyle=orthogonalEdgeStyle;html=1;endArrow=block;elbow=vertical;startArrow=none;endFill=1;strokeColor=#545B64;rounded=0;exitX=1;exitY=0.5;exitDx=0;exitDy=0;exitPerimeter=0;entryX=0;entryY=0.5;entryDx=0;entryDy=0;entryPerimeter=0;" parent="rsf9-r4wDUU0yCLMIy4u-2" source="rsf9-r4wDUU0yCLMIy4u-11" target="rsf9-r4wDUU0yCLMIy4u-13" edge="1">
          <mxGeometry width="100" relative="1" as="geometry">
            <mxPoint x="48" y="300" as="sourcePoint" />
            <mxPoint x="199" y="550" as="targetPoint" />
          </mxGeometry>
        </mxCell>
        <mxCell id="rsf9-r4wDUU0yCLMIy4u-15" value="" style="sketch=0;points=[[0,0,0],[0.25,0,0],[0.5,0,0],[0.75,0,0],[1,0,0],[0,1,0],[0.25,1,0],[0.5,1,0],[0.75,1,0],[1,1,0],[0,0.25,0],[0,0.5,0],[0,0.75,0],[1,0.25,0],[1,0.5,0],[1,0.75,0]];outlineConnect=0;fontColor=#232F3E;gradientColor=#945DF2;gradientDirection=north;fillColor=#5A30B5;strokeColor=#ffffff;dashed=0;verticalLabelPosition=bottom;verticalAlign=top;align=center;html=1;fontSize=12;fontStyle=0;aspect=fixed;shape=mxgraph.aws4.resourceIcon;resIcon=mxgraph.aws4.api_gateway;" parent="rsf9-r4wDUU0yCLMIy4u-2" vertex="1">
          <mxGeometry x="280" y="221" width="78" height="78" as="geometry" />
        </mxCell>
        <mxCell id="rsf9-r4wDUU0yCLMIy4u-16" value="" style="edgeStyle=orthogonalEdgeStyle;html=1;endArrow=block;elbow=vertical;startArrow=none;endFill=1;strokeColor=#545B64;rounded=0;exitX=1;exitY=0.5;exitDx=0;exitDy=0;exitPerimeter=0;entryX=0;entryY=0.5;entryDx=0;entryDy=0;entryPerimeter=0;" parent="rsf9-r4wDUU0yCLMIy4u-2" source="rsf9-r4wDUU0yCLMIy4u-6" target="rsf9-r4wDUU0yCLMIy4u-15" edge="1">
          <mxGeometry width="100" relative="1" as="geometry">
            <mxPoint x="130" y="340" as="sourcePoint" />
            <mxPoint x="230" y="340" as="targetPoint" />
          </mxGeometry>
        </mxCell>
        <mxCell id="rsf9-r4wDUU0yCLMIy4u-17" value="" style="sketch=0;points=[[0,0,0],[0.25,0,0],[0.5,0,0],[0.75,0,0],[1,0,0],[0,1,0],[0.25,1,0],[0.5,1,0],[0.75,1,0],[1,1,0],[0,0.25,0],[0,0.5,0],[0,0.75,0],[1,0.25,0],[1,0.5,0],[1,0.75,0]];outlineConnect=0;fontColor=#232F3E;gradientColor=#F78E04;gradientDirection=north;fillColor=#D05C17;strokeColor=#ffffff;dashed=0;verticalLabelPosition=bottom;verticalAlign=top;align=center;html=1;fontSize=12;fontStyle=0;aspect=fixed;shape=mxgraph.aws4.resourceIcon;resIcon=mxgraph.aws4.lambda;" parent="rsf9-r4wDUU0yCLMIy4u-2" vertex="1">
          <mxGeometry x="520" y="221" width="78" height="78" as="geometry" />
        </mxCell>
        <mxCell id="rsf9-r4wDUU0yCLMIy4u-18" value="" style="edgeStyle=orthogonalEdgeStyle;html=1;endArrow=block;elbow=vertical;startArrow=none;endFill=1;strokeColor=#545B64;rounded=0;exitX=1;exitY=0.5;exitDx=0;exitDy=0;exitPerimeter=0;entryX=0;entryY=0.5;entryDx=0;entryDy=0;entryPerimeter=0;" parent="rsf9-r4wDUU0yCLMIy4u-2" source="rsf9-r4wDUU0yCLMIy4u-15" target="rsf9-r4wDUU0yCLMIy4u-17" edge="1">
          <mxGeometry width="100" relative="1" as="geometry">
            <mxPoint x="48" y="270" as="sourcePoint" />
            <mxPoint x="290" y="270" as="targetPoint" />
          </mxGeometry>
        </mxCell>
        <mxCell id="rsf9-r4wDUU0yCLMIy4u-19" value="" style="edgeStyle=orthogonalEdgeStyle;html=1;endArrow=block;elbow=vertical;startArrow=none;endFill=1;strokeColor=#545B64;rounded=0;exitX=0.5;exitY=1;exitDx=0;exitDy=0;exitPerimeter=0;entryX=0.5;entryY=0;entryDx=0;entryDy=0;entryPerimeter=0;" parent="rsf9-r4wDUU0yCLMIy4u-2" source="rsf9-r4wDUU0yCLMIy4u-17" target="rsf9-r4wDUU0yCLMIy4u-13" edge="1">
          <mxGeometry width="100" relative="1" as="geometry">
            <mxPoint x="368" y="270" as="sourcePoint" />
            <mxPoint x="530" y="270" as="targetPoint" />
          </mxGeometry>
        </mxCell>
        <mxCell id="rsf9-r4wDUU0yCLMIy4u-20" value="" style="sketch=0;points=[[0,0,0],[0.25,0,0],[0.5,0,0],[0.75,0,0],[1,0,0],[0,1,0],[0.25,1,0],[0.5,1,0],[0.75,1,0],[1,1,0],[0,0.25,0],[0,0.5,0],[0,0.75,0],[1,0.25,0],[1,0.5,0],[1,0.75,0]];outlineConnect=0;fontColor=#232F3E;gradientColor=#4D72F3;gradientDirection=north;fillColor=#3334B9;strokeColor=#ffffff;dashed=0;verticalLabelPosition=bottom;verticalAlign=top;align=center;html=1;fontSize=12;fontStyle=0;aspect=fixed;shape=mxgraph.aws4.resourceIcon;resIcon=mxgraph.aws4.dynamodb;" parent="rsf9-r4wDUU0yCLMIy4u-2" vertex="1">
          <mxGeometry x="720" y="220" width="78" height="78" as="geometry" />
        </mxCell>
        <mxCell id="rsf9-r4wDUU0yCLMIy4u-22" value="" style="html=1;endArrow=block;elbow=vertical;startArrow=none;endFill=1;strokeColor=#545B64;rounded=0;entryX=1;entryY=0.75;entryDx=0;entryDy=0;entryPerimeter=0;" parent="rsf9-r4wDUU0yCLMIy4u-2" target="rsf9-r4wDUU0yCLMIy4u-17" edge="1">
          <mxGeometry width="100" relative="1" as="geometry">
            <mxPoint x="720" y="280" as="sourcePoint" />
            <mxPoint x="730" y="250" as="targetPoint" />
          </mxGeometry>
        </mxCell>
        <mxCell id="rsf9-r4wDUU0yCLMIy4u-21" value="" style="edgeStyle=orthogonalEdgeStyle;html=1;endArrow=block;elbow=vertical;startArrow=none;endFill=1;strokeColor=#545B64;rounded=0;exitX=1;exitY=0.25;exitDx=0;exitDy=0;exitPerimeter=0;entryX=0;entryY=0.25;entryDx=0;entryDy=0;entryPerimeter=0;" parent="rsf9-r4wDUU0yCLMIy4u-2" source="rsf9-r4wDUU0yCLMIy4u-17" target="rsf9-r4wDUU0yCLMIy4u-20" edge="1">
          <mxGeometry width="100" relative="1" as="geometry">
            <mxPoint x="600" y="240" as="sourcePoint" />
            <mxPoint x="720" y="241" as="targetPoint" />
          </mxGeometry>
        </mxCell>
        <mxCell id="rsf9-r4wDUU0yCLMIy4u-23" value="CloudFront" style="text;html=1;align=center;verticalAlign=middle;resizable=0;points=[];autosize=1;strokeColor=none;fillColor=none;fontStyle=1" parent="rsf9-r4wDUU0yCLMIy4u-2" vertex="1">
          <mxGeometry x="145" y="608" width="90" height="30" as="geometry" />
        </mxCell>
        <mxCell id="rsf9-r4wDUU0yCLMIy4u-25" value="Route 53" style="text;html=1;align=center;verticalAlign=middle;resizable=0;points=[];autosize=1;strokeColor=none;fillColor=none;fontStyle=1" parent="rsf9-r4wDUU0yCLMIy4u-2" vertex="1">
          <mxGeometry x="-36" y="299" width="70" height="30" as="geometry" />
        </mxCell>
        <mxCell id="rsf9-r4wDUU0yCLMIy4u-26" value="&lt;b&gt;Cognito&lt;/b&gt;" style="text;html=1;align=center;verticalAlign=middle;resizable=0;points=[];autosize=1;strokeColor=none;fillColor=none;" parent="rsf9-r4wDUU0yCLMIy4u-2" vertex="1">
          <mxGeometry x="150" y="30" width="70" height="30" as="geometry" />
        </mxCell>
        <mxCell id="rsf9-r4wDUU0yCLMIy4u-27" value="&lt;b&gt;API Gateway&lt;/b&gt;" style="text;html=1;align=center;verticalAlign=middle;resizable=0;points=[];autosize=1;strokeColor=none;fillColor=none;" parent="rsf9-r4wDUU0yCLMIy4u-2" vertex="1">
          <mxGeometry x="265" y="298" width="100" height="30" as="geometry" />
        </mxCell>
        <mxCell id="rsf9-r4wDUU0yCLMIy4u-28" value="&lt;b&gt;Lambda&lt;/b&gt;" style="text;html=1;align=center;verticalAlign=middle;resizable=0;points=[];autosize=1;strokeColor=none;fillColor=none;" parent="rsf9-r4wDUU0yCLMIy4u-2" vertex="1">
          <mxGeometry x="524" y="298" width="70" height="30" as="geometry" />
        </mxCell>
        <mxCell id="rsf9-r4wDUU0yCLMIy4u-29" value="&lt;b&gt;DynamoDB&lt;/b&gt;" style="text;html=1;align=center;verticalAlign=middle;resizable=0;points=[];autosize=1;strokeColor=none;fillColor=none;" parent="rsf9-r4wDUU0yCLMIy4u-2" vertex="1">
          <mxGeometry x="710" y="299" width="90" height="30" as="geometry" />
        </mxCell>
        <mxCell id="rsf9-r4wDUU0yCLMIy4u-4" value="&lt;b&gt;Users&lt;/b&gt;" style="sketch=0;outlineConnect=0;fontColor=#232F3E;gradientColor=none;strokeColor=#232F3E;fillColor=#ffffff;dashed=0;verticalLabelPosition=bottom;verticalAlign=top;align=center;html=1;fontSize=12;fontStyle=0;aspect=fixed;shape=mxgraph.aws4.resourceIcon;resIcon=mxgraph.aws4.users;" parent="1" vertex="1">
          <mxGeometry x="-320" y="290" width="60" height="60" as="geometry" />
        </mxCell>
        <mxCell id="rsf9-r4wDUU0yCLMIy4u-5" value="&lt;b&gt;Client&lt;/b&gt;" style="sketch=0;outlineConnect=0;fontColor=#232F3E;gradientColor=none;strokeColor=#232F3E;fillColor=#ffffff;dashed=0;verticalLabelPosition=bottom;verticalAlign=top;align=center;html=1;fontSize=12;fontStyle=0;aspect=fixed;shape=mxgraph.aws4.resourceIcon;resIcon=mxgraph.aws4.client;" parent="1" vertex="1">
          <mxGeometry x="-170" y="290" width="60" height="60" as="geometry" />
        </mxCell>
        <mxCell id="rsf9-r4wDUU0yCLMIy4u-8" value="" style="edgeStyle=orthogonalEdgeStyle;html=1;endArrow=block;elbow=vertical;startArrow=none;endFill=1;strokeColor=#545B64;rounded=0;" parent="1" source="rsf9-r4wDUU0yCLMIy4u-4" edge="1">
          <mxGeometry width="100" relative="1" as="geometry">
            <mxPoint x="-230" y="420" as="sourcePoint" />
            <mxPoint x="-170" y="320" as="targetPoint" />
          </mxGeometry>
        </mxCell>
        <mxCell id="rsf9-r4wDUU0yCLMIy4u-9" value="" style="edgeStyle=orthogonalEdgeStyle;html=1;endArrow=block;elbow=vertical;startArrow=none;endFill=1;strokeColor=#545B64;rounded=0;entryX=0;entryY=0.5;entryDx=0;entryDy=0;entryPerimeter=0;" parent="1" source="rsf9-r4wDUU0yCLMIy4u-5" target="rsf9-r4wDUU0yCLMIy4u-6" edge="1">
          <mxGeometry width="100" relative="1" as="geometry">
            <mxPoint x="-110" y="320" as="sourcePoint" />
            <mxPoint x="-10" y="320" as="targetPoint" />
          </mxGeometry>
        </mxCell>
        <mxCell id="rsf9-r4wDUU0yCLMIy4u-24" value="&lt;b&gt;S3&lt;/b&gt;" style="text;html=1;align=center;verticalAlign=middle;resizable=0;points=[];autosize=1;strokeColor=none;fillColor=none;" parent="1" vertex="1">
          <mxGeometry x="620" y="668" width="40" height="30" as="geometry" />
        </mxCell>
      </root>
    </mxGraphModel>
  </diagram>
  <diagram id="Tz9HsEp__4jsToKpA5UT" name="Page-2">
    <mxGraphModel dx="1468" dy="1522" grid="1" gridSize="10" guides="1" tooltips="1" connect="1" arrows="1" fold="1" page="1" pageScale="1" pageWidth="850" pageHeight="1100" math="0" shadow="0">
      <root>
        <mxCell id="0" />
        <mxCell id="1" parent="0" />
        <mxCell id="evOJLAAhfCsT234hLRCB-1" value="AWS Cloud" style="points=[[0,0],[0.25,0],[0.5,0],[0.75,0],[1,0],[1,0.25],[1,0.5],[1,0.75],[1,1],[0.75,1],[0.5,1],[0.25,1],[0,1],[0,0.75],[0,0.5],[0,0.25]];outlineConnect=0;gradientColor=none;html=1;whiteSpace=wrap;fontSize=12;fontStyle=0;container=1;pointerEvents=0;collapsible=0;recursiveResize=0;shape=mxgraph.aws4.group;grIcon=mxgraph.aws4.group_aws_cloud_alt;strokeColor=#232F3E;fillColor=none;verticalAlign=top;align=left;spacingLeft=30;fontColor=#232F3E;dashed=0;" parent="1" vertex="1">
          <mxGeometry x="-40" y="-40" width="1120" height="840" as="geometry" />
        </mxCell>
        <mxCell id="evOJLAAhfCsT234hLRCB-2" value="Region - us-east-1" style="points=[[0,0],[0.25,0],[0.5,0],[0.75,0],[1,0],[1,0.25],[1,0.5],[1,0.75],[1,1],[0.75,1],[0.5,1],[0.25,1],[0,1],[0,0.75],[0,0.5],[0,0.25]];outlineConnect=0;gradientColor=none;html=1;whiteSpace=wrap;fontSize=12;fontStyle=0;container=1;pointerEvents=0;collapsible=0;recursiveResize=0;shape=mxgraph.aws4.group;grIcon=mxgraph.aws4.group_region;strokeColor=#147EBA;fillColor=none;verticalAlign=top;align=left;spacingLeft=30;fontColor=#147EBA;dashed=1;" parent="evOJLAAhfCsT234hLRCB-1" vertex="1">
          <mxGeometry x="40" y="80" width="920" height="720" as="geometry" />
        </mxCell>
        <mxCell id="evOJLAAhfCsT234hLRCB-4" value="VPC - 10.0.0.0/16" style="points=[[0,0],[0.25,0],[0.5,0],[0.75,0],[1,0],[1,0.25],[1,0.5],[1,0.75],[1,1],[0.75,1],[0.5,1],[0.25,1],[0,1],[0,0.75],[0,0.5],[0,0.25]];outlineConnect=0;gradientColor=none;html=1;whiteSpace=wrap;fontSize=12;fontStyle=0;container=1;pointerEvents=0;collapsible=0;recursiveResize=0;shape=mxgraph.aws4.group;grIcon=mxgraph.aws4.group_vpc;strokeColor=#248814;fillColor=none;verticalAlign=top;align=left;spacingLeft=30;fontColor=#AAB7B8;dashed=0;" parent="evOJLAAhfCsT234hLRCB-2" vertex="1">
          <mxGeometry x="40" y="40" width="840" height="640" as="geometry" />
        </mxCell>
        <mxCell id="evOJLAAhfCsT234hLRCB-3" value="us-east-1a" style="fillColor=none;strokeColor=#147EBA;dashed=1;verticalAlign=top;fontStyle=0;fontColor=#147EBA;whiteSpace=wrap;html=1;" parent="evOJLAAhfCsT234hLRCB-4" vertex="1">
          <mxGeometry x="40" y="-20" width="320" height="620" as="geometry" />
        </mxCell>
        <mxCell id="evOJLAAhfCsT234hLRCB-5" value="us-east-1b" style="fillColor=none;strokeColor=#147EBA;dashed=1;verticalAlign=top;fontStyle=0;fontColor=#147EBA;whiteSpace=wrap;html=1;" parent="evOJLAAhfCsT234hLRCB-4" vertex="1">
          <mxGeometry x="480" y="-20" width="320" height="620" as="geometry" />
        </mxCell>
        <mxCell id="evOJLAAhfCsT234hLRCB-6" value="Public subnet 1 - 10.0.1.0/24" style="points=[[0,0],[0.25,0],[0.5,0],[0.75,0],[1,0],[1,0.25],[1,0.5],[1,0.75],[1,1],[0.75,1],[0.5,1],[0.25,1],[0,1],[0,0.75],[0,0.5],[0,0.25]];outlineConnect=0;gradientColor=none;html=1;whiteSpace=wrap;fontSize=12;fontStyle=0;container=1;pointerEvents=0;collapsible=0;recursiveResize=0;shape=mxgraph.aws4.group;grIcon=mxgraph.aws4.group_security_group;grStroke=0;strokeColor=#248814;fillColor=#E9F3E6;verticalAlign=top;align=left;spacingLeft=30;fontColor=#248814;dashed=0;" parent="evOJLAAhfCsT234hLRCB-4" vertex="1">
          <mxGeometry x="80" y="80" width="240" height="200" as="geometry" />
        </mxCell>
        <mxCell id="evOJLAAhfCsT234hLRCB-7" value="Public subnet 2 - 10.0.2.0/24" style="points=[[0,0],[0.25,0],[0.5,0],[0.75,0],[1,0],[1,0.25],[1,0.5],[1,0.75],[1,1],[0.75,1],[0.5,1],[0.25,1],[0,1],[0,0.75],[0,0.5],[0,0.25]];outlineConnect=0;gradientColor=none;html=1;whiteSpace=wrap;fontSize=12;fontStyle=0;container=1;pointerEvents=0;collapsible=0;recursiveResize=0;shape=mxgraph.aws4.group;grIcon=mxgraph.aws4.group_security_group;grStroke=0;strokeColor=#248814;fillColor=#E9F3E6;verticalAlign=top;align=left;spacingLeft=30;fontColor=#248814;dashed=0;" parent="evOJLAAhfCsT234hLRCB-4" vertex="1">
          <mxGeometry x="520" y="80" width="240" height="200" as="geometry" />
        </mxCell>
        <mxCell id="evOJLAAhfCsT234hLRCB-8" value="Private subnet 1 - 10.0.10.0/24" style="points=[[0,0],[0.25,0],[0.5,0],[0.75,0],[1,0],[1,0.25],[1,0.5],[1,0.75],[1,1],[0.75,1],[0.5,1],[0.25,1],[0,1],[0,0.75],[0,0.5],[0,0.25]];outlineConnect=0;gradientColor=none;html=1;whiteSpace=wrap;fontSize=12;fontStyle=0;container=1;pointerEvents=0;collapsible=0;recursiveResize=0;shape=mxgraph.aws4.group;grIcon=mxgraph.aws4.group_security_group;grStroke=0;strokeColor=#147EBA;fillColor=#E6F2F8;verticalAlign=top;align=left;spacingLeft=30;fontColor=#147EBA;dashed=0;" parent="evOJLAAhfCsT234hLRCB-4" vertex="1">
          <mxGeometry x="80" y="360" width="240" height="200" as="geometry" />
        </mxCell>
        <mxCell id="evOJLAAhfCsT234hLRCB-9" value="Private subnet 2 - 10.0.11.0/24" style="points=[[0,0],[0.25,0],[0.5,0],[0.75,0],[1,0],[1,0.25],[1,0.5],[1,0.75],[1,1],[0.75,1],[0.5,1],[0.25,1],[0,1],[0,0.75],[0,0.5],[0,0.25]];outlineConnect=0;gradientColor=none;html=1;whiteSpace=wrap;fontSize=12;fontStyle=0;container=1;pointerEvents=0;collapsible=0;recursiveResize=0;shape=mxgraph.aws4.group;grIcon=mxgraph.aws4.group_security_group;grStroke=0;strokeColor=#147EBA;fillColor=#E6F2F8;verticalAlign=top;align=left;spacingLeft=30;fontColor=#147EBA;dashed=0;" parent="evOJLAAhfCsT234hLRCB-4" vertex="1">
          <mxGeometry x="520" y="360" width="240" height="200" as="geometry" />
        </mxCell>
        <mxCell id="evOJLAAhfCsT234hLRCB-10" value="Auto Scaling&lt;br&gt;group" style="points=[[0,0],[0.25,0],[0.5,0],[0.75,0],[1,0],[1,0.25],[1,0.5],[1,0.75],[1,1],[0.75,1],[0.5,1],[0.25,1],[0,1],[0,0.75],[0,0.5],[0,0.25]];outlineConnect=0;gradientColor=none;html=1;whiteSpace=wrap;fontSize=12;fontStyle=0;container=1;pointerEvents=0;collapsible=0;recursiveResize=0;shape=mxgraph.aws4.groupCenter;grIcon=mxgraph.aws4.group_auto_scaling_group;grStroke=1;strokeColor=#D86613;fillColor=none;verticalAlign=top;align=left;fontColor=#D86613;dashed=1;spacingTop=25;direction=north;" parent="evOJLAAhfCsT234hLRCB-4" vertex="1">
          <mxGeometry x="10" y="120" width="820" height="208" as="geometry" />
        </mxCell>
        <mxCell id="evOJLAAhfCsT234hLRCB-14" value="" style="sketch=0;outlineConnect=0;fontColor=#232F3E;gradientColor=none;fillColor=#ED7100;strokeColor=none;dashed=0;verticalLabelPosition=bottom;verticalAlign=top;align=center;html=1;fontSize=12;fontStyle=0;aspect=fixed;pointerEvents=1;shape=mxgraph.aws4.m5_instance;" parent="evOJLAAhfCsT234hLRCB-10" vertex="1">
          <mxGeometry x="660" y="70" width="48" height="48" as="geometry" />
        </mxCell>
        <mxCell id="evOJLAAhfCsT234hLRCB-21" value="" style="sketch=0;points=[[0,0,0],[0.25,0,0],[0.5,0,0],[0.75,0,0],[1,0,0],[0,1,0],[0.25,1,0],[0.5,1,0],[0.75,1,0],[1,1,0],[0,0.25,0],[0,0.5,0],[0,0.75,0],[1,0.25,0],[1,0.5,0],[1,0.75,0]];outlineConnect=0;fontColor=#232F3E;gradientColor=#F78E04;gradientDirection=north;fillColor=#D05C17;strokeColor=#ffffff;dashed=0;verticalLabelPosition=bottom;verticalAlign=top;align=center;html=1;fontSize=12;fontStyle=0;aspect=fixed;shape=mxgraph.aws4.resourceIcon;resIcon=mxgraph.aws4.elastic_load_balancing;" parent="evOJLAAhfCsT234hLRCB-10" vertex="1">
          <mxGeometry x="371" y="55" width="78" height="78" as="geometry" />
        </mxCell>
        <mxCell id="evOJLAAhfCsT234hLRCB-33" value="" style="edgeStyle=orthogonalEdgeStyle;html=1;endArrow=block;elbow=vertical;startArrow=none;endFill=1;strokeColor=#545B64;rounded=0;exitX=1;exitY=0.5;exitDx=0;exitDy=0;exitPerimeter=0;" parent="evOJLAAhfCsT234hLRCB-10" source="evOJLAAhfCsT234hLRCB-21" target="evOJLAAhfCsT234hLRCB-14" edge="1">
          <mxGeometry width="100" relative="1" as="geometry">
            <mxPoint x="400" y="10" as="sourcePoint" />
            <mxPoint x="500" y="10" as="targetPoint" />
          </mxGeometry>
        </mxCell>
        <mxCell id="evOJLAAhfCsT234hLRCB-47" value="" style="sketch=0;outlineConnect=0;fontColor=#232F3E;gradientColor=none;fillColor=#4D27AA;strokeColor=none;dashed=0;verticalLabelPosition=bottom;verticalAlign=top;align=center;html=1;fontSize=12;fontStyle=0;aspect=fixed;pointerEvents=1;shape=mxgraph.aws4.nat_gateway;" parent="evOJLAAhfCsT234hLRCB-10" vertex="1">
          <mxGeometry x="550" width="49" height="49" as="geometry" />
        </mxCell>
        <mxCell id="evOJLAAhfCsT234hLRCB-59" value="Internet Gateway" style="text;html=1;align=center;verticalAlign=middle;resizable=0;points=[];autosize=1;strokeColor=none;fillColor=none;fontStyle=1" parent="evOJLAAhfCsT234hLRCB-10" vertex="1">
          <mxGeometry x="350" width="120" height="30" as="geometry" />
        </mxCell>
        <mxCell id="evOJLAAhfCsT234hLRCB-63" value="NAT Gateway&lt;br&gt;with Elastic IP" style="text;html=1;align=center;verticalAlign=middle;resizable=0;points=[];autosize=1;strokeColor=none;fillColor=none;fontStyle=1" parent="evOJLAAhfCsT234hLRCB-10" vertex="1">
          <mxGeometry x="190" y="44" width="100" height="40" as="geometry" />
        </mxCell>
        <mxCell id="evOJLAAhfCsT234hLRCB-70" value="Elastic Load Balancing" style="text;html=1;align=center;verticalAlign=middle;resizable=0;points=[];autosize=1;strokeColor=none;fillColor=none;fontStyle=1" parent="evOJLAAhfCsT234hLRCB-10" vertex="1">
          <mxGeometry x="335" y="133" width="150" height="30" as="geometry" />
        </mxCell>
        <mxCell id="evOJLAAhfCsT234hLRCB-71" value="Elastic Load Balancing" style="text;html=1;align=center;verticalAlign=middle;resizable=0;points=[];autosize=1;strokeColor=none;fillColor=none;fontStyle=1" parent="evOJLAAhfCsT234hLRCB-10" vertex="1">
          <mxGeometry x="335" y="170" width="150" height="30" as="geometry" />
        </mxCell>
        <mxCell id="E7x3y4CTw9QeTNx7aCbP-12" value="" style="sketch=0;outlineConnect=0;fontColor=#232F3E;gradientColor=none;fillColor=#ED7100;strokeColor=none;dashed=0;verticalLabelPosition=bottom;verticalAlign=top;align=center;html=1;fontSize=12;fontStyle=0;aspect=fixed;pointerEvents=1;shape=mxgraph.aws4.elastic_ip_address;" vertex="1" parent="evOJLAAhfCsT234hLRCB-10">
          <mxGeometry x="172" y="30" width="48" height="20" as="geometry" />
        </mxCell>
        <mxCell id="evOJLAAhfCsT234hLRCB-12" value="Auto Scaling&lt;br&gt;group" style="points=[[0,0],[0.25,0],[0.5,0],[0.75,0],[1,0],[1,0.25],[1,0.5],[1,0.75],[1,1],[0.75,1],[0.5,1],[0.25,1],[0,1],[0,0.75],[0,0.5],[0,0.25]];outlineConnect=0;gradientColor=none;html=1;whiteSpace=wrap;fontSize=12;fontStyle=0;container=1;pointerEvents=0;collapsible=0;recursiveResize=0;shape=mxgraph.aws4.groupCenter;grIcon=mxgraph.aws4.group_auto_scaling_group;grStroke=1;strokeColor=#D86613;fillColor=none;verticalAlign=top;align=left;fontColor=#D86613;dashed=1;spacingTop=25;direction=north;" parent="evOJLAAhfCsT234hLRCB-4" vertex="1">
          <mxGeometry x="10" y="400" width="820" height="160" as="geometry" />
        </mxCell>
        <mxCell id="evOJLAAhfCsT234hLRCB-16" value="" style="sketch=0;outlineConnect=0;fontColor=#232F3E;gradientColor=none;fillColor=#ED7100;strokeColor=none;dashed=0;verticalLabelPosition=bottom;verticalAlign=top;align=center;html=1;fontSize=12;fontStyle=0;aspect=fixed;pointerEvents=1;shape=mxgraph.aws4.m5_instance;" parent="evOJLAAhfCsT234hLRCB-12" vertex="1">
          <mxGeometry x="660" y="10" width="48" height="48" as="geometry" />
        </mxCell>
        <mxCell id="evOJLAAhfCsT234hLRCB-67" value="EC2 - M5 instance" style="text;html=1;align=center;verticalAlign=middle;resizable=0;points=[];autosize=1;strokeColor=none;fillColor=none;fontStyle=1" parent="evOJLAAhfCsT234hLRCB-12" vertex="1">
          <mxGeometry x="624" y="65" width="130" height="30" as="geometry" />
        </mxCell>
        <mxCell id="evOJLAAhfCsT234hLRCB-17" value="" style="sketch=0;points=[[0,0,0],[0.25,0,0],[0.5,0,0],[0.75,0,0],[1,0,0],[0,1,0],[0.25,1,0],[0.5,1,0],[0.75,1,0],[1,1,0],[0,0.25,0],[0,0.5,0],[0,0.75,0],[1,0.25,0],[1,0.5,0],[1,0.75,0]];outlineConnect=0;fontColor=#232F3E;gradientColor=#4D72F3;gradientDirection=north;fillColor=#3334B9;strokeColor=#ffffff;dashed=0;verticalLabelPosition=bottom;verticalAlign=top;align=center;html=1;fontSize=12;fontStyle=0;aspect=fixed;shape=mxgraph.aws4.resourceIcon;resIcon=mxgraph.aws4.rds;" parent="evOJLAAhfCsT234hLRCB-4" vertex="1">
          <mxGeometry x="240" y="480" width="48" height="48" as="geometry" />
        </mxCell>
        <mxCell id="evOJLAAhfCsT234hLRCB-18" value="" style="sketch=0;points=[[0,0,0],[0.25,0,0],[0.5,0,0],[0.75,0,0],[1,0,0],[0,1,0],[0.25,1,0],[0.5,1,0],[0.75,1,0],[1,1,0],[0,0.25,0],[0,0.5,0],[0,0.75,0],[1,0.25,0],[1,0.5,0],[1,0.75,0]];outlineConnect=0;fontColor=#232F3E;gradientColor=#4D72F3;gradientDirection=north;fillColor=#3334B9;strokeColor=#ffffff;dashed=0;verticalLabelPosition=bottom;verticalAlign=top;align=center;html=1;fontSize=12;fontStyle=0;aspect=fixed;shape=mxgraph.aws4.resourceIcon;resIcon=mxgraph.aws4.rds;" parent="evOJLAAhfCsT234hLRCB-4" vertex="1">
          <mxGeometry x="560" y="480" width="48" height="48" as="geometry" />
        </mxCell>
        <mxCell id="evOJLAAhfCsT234hLRCB-22" value="" style="sketch=0;points=[[0,0,0],[0.25,0,0],[0.5,0,0],[0.75,0,0],[1,0,0],[0,1,0],[0.25,1,0],[0.5,1,0],[0.75,1,0],[1,1,0],[0,0.25,0],[0,0.5,0],[0,0.75,0],[1,0.25,0],[1,0.5,0],[1,0.75,0]];outlineConnect=0;fontColor=#232F3E;gradientColor=#F78E04;gradientDirection=north;fillColor=#D05C17;strokeColor=#ffffff;dashed=0;verticalLabelPosition=bottom;verticalAlign=top;align=center;html=1;fontSize=12;fontStyle=0;aspect=fixed;shape=mxgraph.aws4.resourceIcon;resIcon=mxgraph.aws4.elastic_load_balancing;" parent="evOJLAAhfCsT234hLRCB-4" vertex="1">
          <mxGeometry x="381" y="320" width="78" height="78" as="geometry" />
        </mxCell>
        <mxCell id="evOJLAAhfCsT234hLRCB-35" value="" style="edgeStyle=orthogonalEdgeStyle;html=1;endArrow=block;elbow=vertical;startArrow=none;endFill=1;strokeColor=#545B64;rounded=0;entryX=0.5;entryY=0;entryDx=0;entryDy=0;entryPerimeter=0;" parent="evOJLAAhfCsT234hLRCB-4" source="evOJLAAhfCsT234hLRCB-54" target="evOJLAAhfCsT234hLRCB-21" edge="1">
          <mxGeometry width="100" relative="1" as="geometry">
            <mxPoint x="420" y="120" as="sourcePoint" />
            <mxPoint x="429" y="50" as="targetPoint" />
          </mxGeometry>
        </mxCell>
        <mxCell id="evOJLAAhfCsT234hLRCB-37" value="" style="edgeStyle=orthogonalEdgeStyle;html=1;endArrow=block;elbow=vertical;startArrow=none;endFill=1;strokeColor=#545B64;rounded=0;entryX=0;entryY=0.25;entryDx=0;entryDy=0;entryPerimeter=0;" parent="evOJLAAhfCsT234hLRCB-4" source="UGRv8jRSBPU99xlvNzwm-1" target="evOJLAAhfCsT234hLRCB-22" edge="1">
          <mxGeometry width="100" relative="1" as="geometry">
            <mxPoint x="144.0322580645161" y="238" as="sourcePoint" />
            <mxPoint x="430" y="185" as="targetPoint" />
            <Array as="points">
              <mxPoint x="144" y="340" />
            </Array>
          </mxGeometry>
        </mxCell>
        <mxCell id="evOJLAAhfCsT234hLRCB-38" value="" style="edgeStyle=orthogonalEdgeStyle;html=1;endArrow=block;elbow=vertical;startArrow=none;endFill=1;strokeColor=#545B64;rounded=0;entryX=1;entryY=0.25;entryDx=0;entryDy=0;entryPerimeter=0;" parent="evOJLAAhfCsT234hLRCB-4" source="evOJLAAhfCsT234hLRCB-14" target="evOJLAAhfCsT234hLRCB-22" edge="1">
          <mxGeometry width="100" relative="1" as="geometry">
            <mxPoint x="154" y="248" as="sourcePoint" />
            <mxPoint x="391" y="349" as="targetPoint" />
            <Array as="points">
              <mxPoint x="694" y="340" />
              <mxPoint x="459" y="340" />
            </Array>
          </mxGeometry>
        </mxCell>
        <mxCell id="evOJLAAhfCsT234hLRCB-15" value="" style="sketch=0;outlineConnect=0;fontColor=#232F3E;gradientColor=none;fillColor=#D45B07;strokeColor=none;dashed=0;verticalLabelPosition=bottom;verticalAlign=top;align=center;html=1;fontSize=12;fontStyle=0;aspect=fixed;pointerEvents=1;shape=mxgraph.aws4.m5_instance;" parent="evOJLAAhfCsT234hLRCB-4" vertex="1">
          <mxGeometry x="120" y="410" width="48" height="48" as="geometry" />
        </mxCell>
        <mxCell id="evOJLAAhfCsT234hLRCB-39" value="" style="edgeStyle=orthogonalEdgeStyle;html=1;endArrow=block;elbow=vertical;startArrow=none;endFill=1;strokeColor=#545B64;rounded=0;exitX=0.75;exitY=1;exitDx=0;exitDy=0;exitPerimeter=0;" parent="evOJLAAhfCsT234hLRCB-4" source="evOJLAAhfCsT234hLRCB-22" target="evOJLAAhfCsT234hLRCB-16" edge="1">
          <mxGeometry width="100" relative="1" as="geometry">
            <mxPoint x="400" y="440" as="sourcePoint" />
            <mxPoint x="500" y="440" as="targetPoint" />
            <Array as="points">
              <mxPoint x="439" y="434" />
            </Array>
          </mxGeometry>
        </mxCell>
        <mxCell id="evOJLAAhfCsT234hLRCB-40" value="" style="edgeStyle=orthogonalEdgeStyle;html=1;endArrow=block;elbow=vertical;startArrow=none;endFill=1;strokeColor=#545B64;rounded=0;exitX=0.25;exitY=1;exitDx=0;exitDy=0;exitPerimeter=0;" parent="evOJLAAhfCsT234hLRCB-4" source="evOJLAAhfCsT234hLRCB-22" target="evOJLAAhfCsT234hLRCB-15" edge="1">
          <mxGeometry width="100" relative="1" as="geometry">
            <mxPoint x="450" y="408" as="sourcePoint" />
            <mxPoint x="680" y="444" as="targetPoint" />
            <Array as="points">
              <mxPoint x="401" y="434" />
            </Array>
          </mxGeometry>
        </mxCell>
        <mxCell id="evOJLAAhfCsT234hLRCB-43" value="" style="edgeStyle=orthogonalEdgeStyle;html=1;endArrow=block;elbow=vertical;startArrow=none;endFill=1;strokeColor=#545B64;rounded=0;exitX=1;exitY=0.5;exitDx=0;exitDy=0;exitPerimeter=0;entryX=0;entryY=0.5;entryDx=0;entryDy=0;entryPerimeter=0;" parent="evOJLAAhfCsT234hLRCB-4" source="evOJLAAhfCsT234hLRCB-17" target="evOJLAAhfCsT234hLRCB-18" edge="1">
          <mxGeometry width="100" relative="1" as="geometry">
            <mxPoint x="340" y="520" as="sourcePoint" />
            <mxPoint x="440" y="520" as="targetPoint" />
          </mxGeometry>
        </mxCell>
        <mxCell id="evOJLAAhfCsT234hLRCB-44" value="" style="edgeStyle=orthogonalEdgeStyle;html=1;endArrow=block;elbow=vertical;startArrow=none;endFill=1;strokeColor=#545B64;rounded=0;entryX=0;entryY=0.5;entryDx=0;entryDy=0;entryPerimeter=0;" parent="evOJLAAhfCsT234hLRCB-4" source="evOJLAAhfCsT234hLRCB-15" target="evOJLAAhfCsT234hLRCB-17" edge="1">
          <mxGeometry width="100" relative="1" as="geometry">
            <mxPoint x="140" y="500" as="sourcePoint" />
            <mxPoint x="240" y="500" as="targetPoint" />
            <Array as="points">
              <mxPoint x="140" y="504" />
            </Array>
          </mxGeometry>
        </mxCell>
        <mxCell id="evOJLAAhfCsT234hLRCB-45" value="" style="edgeStyle=orthogonalEdgeStyle;html=1;endArrow=block;elbow=vertical;startArrow=none;endFill=1;strokeColor=#545B64;rounded=0;" parent="evOJLAAhfCsT234hLRCB-4" source="evOJLAAhfCsT234hLRCB-16" target="evOJLAAhfCsT234hLRCB-17" edge="1">
          <mxGeometry width="100" relative="1" as="geometry">
            <mxPoint x="460" y="470" as="sourcePoint" />
            <mxPoint x="560" y="470" as="targetPoint" />
            <Array as="points">
              <mxPoint x="694" y="460" />
              <mxPoint x="264" y="460" />
            </Array>
          </mxGeometry>
        </mxCell>
        <mxCell id="evOJLAAhfCsT234hLRCB-46" value="" style="sketch=0;outlineConnect=0;fontColor=#232F3E;gradientColor=none;fillColor=#4D27AA;strokeColor=none;dashed=0;verticalLabelPosition=bottom;verticalAlign=top;align=center;html=1;fontSize=12;fontStyle=0;aspect=fixed;pointerEvents=1;shape=mxgraph.aws4.nat_gateway;" parent="evOJLAAhfCsT234hLRCB-4" vertex="1">
          <mxGeometry x="230" y="120" width="49" height="49" as="geometry" />
        </mxCell>
        <mxCell id="evOJLAAhfCsT234hLRCB-51" value="" style="edgeStyle=orthogonalEdgeStyle;html=1;endArrow=block;elbow=vertical;startArrow=none;endFill=1;strokeColor=#545B64;rounded=0;" parent="evOJLAAhfCsT234hLRCB-4" source="evOJLAAhfCsT234hLRCB-54" target="evOJLAAhfCsT234hLRCB-47" edge="1">
          <mxGeometry width="100" relative="1" as="geometry">
            <mxPoint x="459" y="61.50000000000023" as="sourcePoint" />
            <mxPoint x="560" y="100" as="targetPoint" />
          </mxGeometry>
        </mxCell>
        <mxCell id="evOJLAAhfCsT234hLRCB-52" value="" style="edgeStyle=orthogonalEdgeStyle;html=1;endArrow=none;elbow=vertical;startArrow=block;startFill=1;strokeColor=#545B64;rounded=0;" parent="evOJLAAhfCsT234hLRCB-4" source="evOJLAAhfCsT234hLRCB-46" target="evOJLAAhfCsT234hLRCB-54" edge="1">
          <mxGeometry width="100" relative="1" as="geometry">
            <mxPoint x="280" y="140" as="sourcePoint" />
            <mxPoint x="381" y="61.50000000000023" as="targetPoint" />
          </mxGeometry>
        </mxCell>
        <mxCell id="evOJLAAhfCsT234hLRCB-54" value="" style="sketch=0;outlineConnect=0;fontColor=#232F3E;gradientColor=none;fillColor=#4D27AA;strokeColor=none;dashed=0;verticalLabelPosition=bottom;verticalAlign=top;align=center;html=1;fontSize=12;fontStyle=0;aspect=fixed;pointerEvents=1;shape=mxgraph.aws4.internet_gateway;" parent="evOJLAAhfCsT234hLRCB-4" vertex="1">
          <mxGeometry x="381" y="42" width="78" height="78" as="geometry" />
        </mxCell>
        <mxCell id="evOJLAAhfCsT234hLRCB-55" value="" style="edgeStyle=orthogonalEdgeStyle;html=1;endArrow=block;elbow=vertical;startArrow=none;endFill=1;strokeColor=#545B64;rounded=0;" parent="evOJLAAhfCsT234hLRCB-4" source="evOJLAAhfCsT234hLRCB-47" target="evOJLAAhfCsT234hLRCB-16" edge="1">
          <mxGeometry width="100" relative="1" as="geometry">
            <mxPoint x="560" y="250" as="sourcePoint" />
            <mxPoint x="660" y="250" as="targetPoint" />
            <Array as="points">
              <mxPoint x="750" y="145" />
              <mxPoint x="750" y="434" />
            </Array>
          </mxGeometry>
        </mxCell>
        <mxCell id="evOJLAAhfCsT234hLRCB-56" value="" style="edgeStyle=orthogonalEdgeStyle;html=1;endArrow=none;elbow=vertical;startArrow=block;startFill=1;strokeColor=#545B64;rounded=0;" parent="evOJLAAhfCsT234hLRCB-4" source="evOJLAAhfCsT234hLRCB-15" target="evOJLAAhfCsT234hLRCB-46" edge="1">
          <mxGeometry width="100" relative="1" as="geometry">
            <mxPoint x="130" y="140" as="sourcePoint" />
            <mxPoint x="230" y="140" as="targetPoint" />
            <Array as="points">
              <mxPoint x="90" y="434" />
              <mxPoint x="90" y="145" />
            </Array>
          </mxGeometry>
        </mxCell>
        <mxCell id="evOJLAAhfCsT234hLRCB-62" value="NAT Gateway&lt;br style=&quot;border-color: var(--border-color);&quot;&gt;with Elastic IP" style="text;html=1;align=center;verticalAlign=middle;resizable=0;points=[];autosize=1;strokeColor=none;fillColor=none;fontStyle=1" parent="evOJLAAhfCsT234hLRCB-4" vertex="1">
          <mxGeometry x="534" y="164" width="100" height="40" as="geometry" />
        </mxCell>
        <mxCell id="evOJLAAhfCsT234hLRCB-64" value="Master RDS&lt;br&gt;(db.m5.large)" style="text;html=1;align=center;verticalAlign=middle;resizable=0;points=[];autosize=1;strokeColor=none;fillColor=none;fontStyle=1" parent="evOJLAAhfCsT234hLRCB-4" vertex="1">
          <mxGeometry x="214" y="523" width="100" height="40" as="geometry" />
        </mxCell>
        <mxCell id="evOJLAAhfCsT234hLRCB-65" value="Read Replica RDS&lt;br&gt;(db.m5.large)" style="text;html=1;align=center;verticalAlign=middle;resizable=0;points=[];autosize=1;strokeColor=none;fillColor=none;fontStyle=1" parent="evOJLAAhfCsT234hLRCB-4" vertex="1">
          <mxGeometry x="519" y="523" width="130" height="40" as="geometry" />
        </mxCell>
        <mxCell id="evOJLAAhfCsT234hLRCB-66" value="EC2 - M5 instance" style="text;html=1;align=center;verticalAlign=middle;resizable=0;points=[];autosize=1;strokeColor=none;fillColor=none;fontStyle=1" parent="evOJLAAhfCsT234hLRCB-4" vertex="1">
          <mxGeometry x="79" y="455" width="130" height="30" as="geometry" />
        </mxCell>
        <mxCell id="evOJLAAhfCsT234hLRCB-68" value="EC2 - T3 instance" style="text;html=1;align=center;verticalAlign=middle;resizable=0;points=[];autosize=1;strokeColor=none;fillColor=none;fontStyle=1" parent="evOJLAAhfCsT234hLRCB-4" vertex="1">
          <mxGeometry x="639" y="240" width="120" height="30" as="geometry" />
        </mxCell>
        <mxCell id="evOJLAAhfCsT234hLRCB-69" value="EC2 - T3 instance" style="text;html=1;align=center;verticalAlign=middle;resizable=0;points=[];autosize=1;strokeColor=none;fillColor=none;fontStyle=1" parent="evOJLAAhfCsT234hLRCB-4" vertex="1">
          <mxGeometry x="94" y="240" width="120" height="30" as="geometry" />
        </mxCell>
        <mxCell id="UGRv8jRSBPU99xlvNzwm-1" value="" style="sketch=0;outlineConnect=0;fontColor=#232F3E;gradientColor=none;fillColor=#ED7100;strokeColor=none;dashed=0;verticalLabelPosition=bottom;verticalAlign=top;align=center;html=1;fontSize=12;fontStyle=0;aspect=fixed;pointerEvents=1;shape=mxgraph.aws4.m5_instance;" parent="evOJLAAhfCsT234hLRCB-4" vertex="1">
          <mxGeometry x="120" y="192" width="48" height="48" as="geometry" />
        </mxCell>
        <mxCell id="evOJLAAhfCsT234hLRCB-34" value="" style="edgeStyle=orthogonalEdgeStyle;html=1;endArrow=block;elbow=vertical;startArrow=none;endFill=1;strokeColor=#545B64;rounded=0;exitX=0;exitY=0.5;exitDx=0;exitDy=0;exitPerimeter=0;entryX=1.01;entryY=0.452;entryDx=0;entryDy=0;entryPerimeter=0;" parent="evOJLAAhfCsT234hLRCB-4" source="evOJLAAhfCsT234hLRCB-21" target="UGRv8jRSBPU99xlvNzwm-1" edge="1">
          <mxGeometry width="100" relative="1" as="geometry">
            <mxPoint x="469" y="224" as="sourcePoint" />
            <mxPoint x="168" y="214" as="targetPoint" />
          </mxGeometry>
        </mxCell>
        <mxCell id="E7x3y4CTw9QeTNx7aCbP-13" value="" style="sketch=0;outlineConnect=0;fontColor=#232F3E;gradientColor=none;fillColor=#ED7100;strokeColor=none;dashed=0;verticalLabelPosition=bottom;verticalAlign=top;align=center;html=1;fontSize=12;fontStyle=0;aspect=fixed;pointerEvents=1;shape=mxgraph.aws4.elastic_ip_address;" vertex="1" parent="evOJLAAhfCsT234hLRCB-4">
          <mxGeometry x="608" y="149" width="48" height="20" as="geometry" />
        </mxCell>
        <mxCell id="evOJLAAhfCsT234hLRCB-23" value="" style="sketch=0;points=[[0,0,0],[0.25,0,0],[0.5,0,0],[0.75,0,0],[1,0,0],[0,1,0],[0.25,1,0],[0.5,1,0],[0.75,1,0],[1,1,0],[0,0.25,0],[0,0.5,0],[0,0.75,0],[1,0.25,0],[1,0.5,0],[1,0.75,0]];outlineConnect=0;fontColor=#232F3E;gradientColor=#945DF2;gradientDirection=north;fillColor=#5A30B5;strokeColor=#ffffff;dashed=0;verticalLabelPosition=bottom;verticalAlign=top;align=center;html=1;fontSize=12;fontStyle=0;aspect=fixed;shape=mxgraph.aws4.resourceIcon;resIcon=mxgraph.aws4.route_53;" parent="evOJLAAhfCsT234hLRCB-1" vertex="1">
          <mxGeometry x="461" y="-38" width="78" height="78" as="geometry" />
        </mxCell>
        <mxCell id="evOJLAAhfCsT234hLRCB-28" value="" style="sketch=0;points=[[0,0,0],[0.25,0,0],[0.5,0,0],[0.75,0,0],[1,0,0],[0,1,0],[0.25,1,0],[0.5,1,0],[0.75,1,0],[1,1,0],[0,0.25,0],[0,0.5,0],[0,0.75,0],[1,0.25,0],[1,0.5,0],[1,0.75,0]];outlineConnect=0;fontColor=#232F3E;gradientColor=#945DF2;gradientDirection=north;fillColor=#5A30B5;strokeColor=#ffffff;dashed=0;verticalLabelPosition=bottom;verticalAlign=top;align=center;html=1;fontSize=12;fontStyle=0;aspect=fixed;shape=mxgraph.aws4.resourceIcon;resIcon=mxgraph.aws4.cloudfront;" parent="evOJLAAhfCsT234hLRCB-1" vertex="1">
          <mxGeometry x="1000" y="40" width="78" height="78" as="geometry" />
        </mxCell>
        <mxCell id="evOJLAAhfCsT234hLRCB-29" value="" style="sketch=0;points=[[0,0,0],[0.25,0,0],[0.5,0,0],[0.75,0,0],[1,0,0],[0,1,0],[0.25,1,0],[0.5,1,0],[0.75,1,0],[1,1,0],[0,0.25,0],[0,0.5,0],[0,0.75,0],[1,0.25,0],[1,0.5,0],[1,0.75,0]];outlineConnect=0;fontColor=#232F3E;gradientColor=#60A337;gradientDirection=north;fillColor=#277116;strokeColor=#ffffff;dashed=0;verticalLabelPosition=bottom;verticalAlign=top;align=center;html=1;fontSize=12;fontStyle=0;aspect=fixed;shape=mxgraph.aws4.resourceIcon;resIcon=mxgraph.aws4.s3;" parent="evOJLAAhfCsT234hLRCB-1" vertex="1">
          <mxGeometry x="1000" y="403" width="78" height="78" as="geometry" />
        </mxCell>
        <mxCell id="evOJLAAhfCsT234hLRCB-30" value="" style="edgeStyle=orthogonalEdgeStyle;html=1;endArrow=block;elbow=vertical;startArrow=none;endFill=1;strokeColor=#545B64;rounded=0;entryX=0.5;entryY=0;entryDx=0;entryDy=0;entryPerimeter=0;" parent="evOJLAAhfCsT234hLRCB-1" target="evOJLAAhfCsT234hLRCB-28" edge="1">
          <mxGeometry width="100" relative="1" as="geometry">
            <mxPoint x="540" y="20" as="sourcePoint" />
            <mxPoint x="640" y="20" as="targetPoint" />
          </mxGeometry>
        </mxCell>
        <mxCell id="evOJLAAhfCsT234hLRCB-31" value="" style="edgeStyle=orthogonalEdgeStyle;html=1;endArrow=block;elbow=vertical;startArrow=none;endFill=1;strokeColor=#545B64;rounded=0;entryX=0.5;entryY=0;entryDx=0;entryDy=0;entryPerimeter=0;exitX=0.5;exitY=1;exitDx=0;exitDy=0;exitPerimeter=0;" parent="evOJLAAhfCsT234hLRCB-1" source="evOJLAAhfCsT234hLRCB-28" target="evOJLAAhfCsT234hLRCB-29" edge="1">
          <mxGeometry width="100" relative="1" as="geometry">
            <mxPoint x="1010" y="190" as="sourcePoint" />
            <mxPoint x="1110" y="190" as="targetPoint" />
          </mxGeometry>
        </mxCell>
        <mxCell id="evOJLAAhfCsT234hLRCB-32" value="" style="edgeStyle=orthogonalEdgeStyle;html=1;endArrow=block;elbow=vertical;startArrow=none;endFill=1;strokeColor=#545B64;rounded=0;entryX=0.5;entryY=0;entryDx=0;entryDy=0;entryPerimeter=0;exitX=0.5;exitY=1;exitDx=0;exitDy=0;exitPerimeter=0;" parent="evOJLAAhfCsT234hLRCB-1" source="evOJLAAhfCsT234hLRCB-23" edge="1">
          <mxGeometry width="100" relative="1" as="geometry">
            <mxPoint x="540" y="60" as="sourcePoint" />
            <mxPoint x="500" y="162" as="targetPoint" />
          </mxGeometry>
        </mxCell>
        <mxCell id="evOJLAAhfCsT234hLRCB-57" value="Route 53" style="text;html=1;align=center;verticalAlign=middle;resizable=0;points=[];autosize=1;strokeColor=none;fillColor=none;fontStyle=1" parent="evOJLAAhfCsT234hLRCB-1" vertex="1">
          <mxGeometry x="465" y="40" width="70" height="30" as="geometry" />
        </mxCell>
        <mxCell id="evOJLAAhfCsT234hLRCB-60" value="CloudFront" style="text;html=1;align=center;verticalAlign=middle;resizable=0;points=[];autosize=1;strokeColor=none;fillColor=none;fontStyle=1" parent="evOJLAAhfCsT234hLRCB-1" vertex="1">
          <mxGeometry x="990" y="118" width="90" height="30" as="geometry" />
        </mxCell>
        <mxCell id="evOJLAAhfCsT234hLRCB-61" value="S3" style="text;html=1;align=center;verticalAlign=middle;resizable=0;points=[];autosize=1;strokeColor=none;fillColor=none;fontStyle=1" parent="evOJLAAhfCsT234hLRCB-1" vertex="1">
          <mxGeometry x="1019" y="481" width="40" height="30" as="geometry" />
        </mxCell>
        <mxCell id="evOJLAAhfCsT234hLRCB-24" value="" style="sketch=0;outlineConnect=0;fontColor=#232F3E;gradientColor=none;fillColor=#232F3D;strokeColor=none;dashed=0;verticalLabelPosition=bottom;verticalAlign=top;align=center;html=1;fontSize=12;fontStyle=0;aspect=fixed;pointerEvents=1;shape=mxgraph.aws4.users;" parent="1" vertex="1">
          <mxGeometry x="700" y="-200" width="78" height="78" as="geometry" />
        </mxCell>
        <mxCell id="evOJLAAhfCsT234hLRCB-25" value="" style="sketch=0;outlineConnect=0;fontColor=#232F3E;gradientColor=none;fillColor=#232F3D;strokeColor=none;dashed=0;verticalLabelPosition=bottom;verticalAlign=top;align=center;html=1;fontSize=12;fontStyle=0;aspect=fixed;pointerEvents=1;shape=mxgraph.aws4.client;" parent="1" vertex="1">
          <mxGeometry x="501" y="-198" width="78" height="76" as="geometry" />
        </mxCell>
        <mxCell id="evOJLAAhfCsT234hLRCB-26" value="" style="html=1;endArrow=none;elbow=vertical;startArrow=block;startFill=1;strokeColor=#545B64;rounded=0;" parent="1" source="evOJLAAhfCsT234hLRCB-25" target="evOJLAAhfCsT234hLRCB-24" edge="1">
          <mxGeometry width="100" relative="1" as="geometry">
            <mxPoint x="590" y="-180" as="sourcePoint" />
            <mxPoint x="690" y="-180" as="targetPoint" />
          </mxGeometry>
        </mxCell>
        <mxCell id="evOJLAAhfCsT234hLRCB-27" value="" style="edgeStyle=orthogonalEdgeStyle;html=1;endArrow=block;elbow=vertical;startArrow=none;endFill=1;strokeColor=#545B64;rounded=0;entryX=0.5;entryY=0;entryDx=0;entryDy=0;entryPerimeter=0;" parent="1" source="evOJLAAhfCsT234hLRCB-25" target="evOJLAAhfCsT234hLRCB-23" edge="1">
          <mxGeometry width="100" relative="1" as="geometry">
            <mxPoint x="540" y="-110" as="sourcePoint" />
            <mxPoint x="630" y="-70" as="targetPoint" />
          </mxGeometry>
        </mxCell>
        <mxCell id="evOJLAAhfCsT234hLRCB-73" value="Clients" style="text;html=1;align=center;verticalAlign=middle;resizable=0;points=[];autosize=1;strokeColor=none;fillColor=none;fontStyle=1" parent="1" vertex="1">
          <mxGeometry x="510" y="-122" width="60" height="30" as="geometry" />
        </mxCell>
        <mxCell id="evOJLAAhfCsT234hLRCB-75" value="Users" style="text;html=1;align=center;verticalAlign=middle;resizable=0;points=[];autosize=1;strokeColor=none;fillColor=none;fontStyle=1" parent="1" vertex="1">
          <mxGeometry x="709" y="-122" width="60" height="30" as="geometry" />
        </mxCell>
      </root>
    </mxGraphModel>
  </diagram>
</mxfile>
